<svg width="24" height="27" viewBox="0 0 24 27" fill="none" xmlns="http://www.w3.org/2000/svg">
<path d="M22.1538 6.48H17.5385C17.5385 4.7614 16.9549 3.11318 15.9163 1.89795C14.8776 0.682712 13.4689 0 12 0C10.5311 0 9.12238 0.682712 8.08372 1.89795C7.04505 3.11318 6.46154 4.7614 6.46154 6.48H1.84615C1.35652 6.48 0.886947 6.70757 0.540726 7.11265C0.194505 7.51773 0 8.06713 0 8.64V24.84C0 25.4129 0.194505 25.9623 0.540726 26.3674C0.886947 26.7724 1.35652 27 1.84615 27H22.1538C22.6435 27 23.1131 26.7724 23.4593 26.3674C23.8055 25.9623 24 25.4129 24 24.84V8.64C24 8.06713 23.8055 7.51773 23.4593 7.11265C23.1131 6.70757 22.6435 6.48 22.1538 6.48ZM12 2.16C12.9793 2.16 13.9184 2.61514 14.6109 3.4253C15.3033 4.23546 15.6923 5.33426 15.6923 6.48H8.30769C8.30769 5.33426 8.6967 4.23546 9.38914 3.4253C10.0816 2.61514 11.0207 2.16 12 2.16ZM22.1538 24.84H1.84615V8.64H6.46154V10.8C6.46154 11.0864 6.55879 11.3611 6.7319 11.5637C6.90501 11.7662 7.1398 11.88 7.38462 11.88C7.62943 11.88 7.86422 11.7662 8.03733 11.5637C8.21044 11.3611 8.30769 11.0864 8.30769 10.8V8.64H15.6923V10.8C15.6923 11.0864 15.7896 11.3611 15.9627 11.5637C16.1358 11.7662 16.3706 11.88 16.6154 11.88C16.8602 11.88 17.095 11.7662 17.2681 11.5637C17.4412 11.3611 17.5385 11.0864 17.5385 10.8V8.64H22.1538V24.84Z" fill="black"/>
</svg>
