<svg width="15" height="13" viewBox="0 0 15 13" fill="none" xmlns="http://www.w3.org/2000/svg">
<path d="M6.98625 10.6C7.04359 10.6722 7.12031 10.7312 7.20981 10.772C7.2993 10.8128 7.39889 10.8341 7.5 10.8341C7.6011 10.8341 7.7007 10.8128 7.79019 10.772C7.87969 10.7312 7.95641 10.6722 8.01375 10.6L13.6387 3.55837C13.7039 3.47715 13.742 3.38202 13.7491 3.28332C13.7563 3.18461 13.732 3.0861 13.6791 2.9985C13.6261 2.9109 13.5465 2.83755 13.4488 2.78642C13.3511 2.73529 13.2391 2.70834 13.125 2.7085H1.875C1.76115 2.7089 1.64958 2.7362 1.5523 2.78745C1.45501 2.8387 1.37569 2.91197 1.32285 2.99937C1.27002 3.08677 1.24568 3.185 1.25244 3.28349C1.25921 3.38199 1.29682 3.47702 1.36125 3.55837L6.98625 10.6Z" fill="#F8F8F8"/>
</svg>
