<svg width="44" height="44" viewBox="0 0 44 44" fill="none" xmlns="http://www.w3.org/2000/svg">
<g filter="url(#filter0_d_4_45)">
<rect width="36" height="36" rx="16" transform="matrix(-1 0 0 1 40 0)" fill="white"/>
</g>
<path d="M32.7071 18.7071C33.0976 18.3166 33.0976 17.6834 32.7071 17.2929L26.3431 10.9289C25.9526 10.5384 25.3195 10.5384 24.9289 10.9289C24.5384 11.3195 24.5384 11.9526 24.9289 12.3431L30.5858 18L24.9289 23.6569C24.5384 24.0474 24.5384 24.6805 24.9289 25.0711C25.3195 25.4616 25.9526 25.4616 26.3431 25.0711L32.7071 18.7071ZM12 19H32V17H12V19Z" fill="black"/>
<defs>
<filter id="filter0_d_4_45" x="0" y="0" width="44" height="44" filterUnits="userSpaceOnUse" color-interpolation-filters="sRGB">
<feFlood flood-opacity="0" result="BackgroundImageFix"/>
<feColorMatrix in="SourceAlpha" type="matrix" values="0 0 0 0 0 0 0 0 0 0 0 0 0 0 0 0 0 0 127 0" result="hardAlpha"/>
<feOffset dy="4"/>
<feGaussianBlur stdDeviation="2"/>
<feComposite in2="hardAlpha" operator="out"/>
<feColorMatrix type="matrix" values="0 0 0 0 0 0 0 0 0 0 0 0 0 0 0 0 0 0 0.25 0"/>
<feBlend mode="normal" in2="BackgroundImageFix" result="effect1_dropShadow_4_45"/>
<feBlend mode="normal" in="SourceGraphic" in2="effect1_dropShadow_4_45" result="shape"/>
</filter>
</defs>
</svg>
