<svg width="146" height="64" viewBox="0 0 146 64" fill="none" xmlns="http://www.w3.org/2000/svg">
<rect width="146" height="64" rx="32" fill="#F5F5F5"/>
<path d="M44.0391 22.1094V22.543C43.4766 22.6445 43.0508 22.8242 42.7617 23.082C42.3477 23.4648 41.9805 24.0508 41.6602 24.8398L36.1172 38.3633H35.6836L29.7305 24.6641C29.4258 23.9609 29.2109 23.5312 29.0859 23.375C28.8906 23.1328 28.6484 22.9453 28.3594 22.8125C28.0781 22.6719 27.6953 22.582 27.2109 22.543V22.1094H33.7031V22.543C32.9688 22.6133 32.4922 22.7383 32.2734 22.918C32.0547 23.0977 31.9453 23.3281 31.9453 23.6094C31.9453 24 32.125 24.6094 32.4844 25.4375L36.5273 34.7539L40.2773 25.5547C40.6445 24.6484 40.8281 24.0195 40.8281 23.668C40.8281 23.4414 40.7148 23.2266 40.4883 23.0234C40.2617 22.8125 39.8789 22.6641 39.3398 22.5781C39.3008 22.5703 39.2344 22.5586 39.1406 22.543V22.1094H44.0391ZM49.3594 22.9766V29.2578H52.8516C53.7578 29.2578 54.3633 29.1211 54.668 28.8477C55.0742 28.4883 55.3008 27.8555 55.3477 26.9492H55.7812V32.4805H55.3477C55.2383 31.707 55.1289 31.2109 55.0195 30.9922C54.8789 30.7188 54.6484 30.5039 54.3281 30.3477C54.0078 30.1914 53.5156 30.1133 52.8516 30.1133H49.3594V35.3516C49.3594 36.0547 49.3906 36.4844 49.4531 36.6406C49.5156 36.7891 49.625 36.9102 49.7812 37.0039C49.9375 37.0898 50.2344 37.1328 50.6719 37.1328H53.3672C54.2656 37.1328 54.918 37.0703 55.3242 36.9453C55.7305 36.8203 56.1211 36.5742 56.4961 36.207C56.9805 35.7227 57.4766 34.9922 57.9844 34.0156H58.4531L57.082 38H44.8359V37.5664H45.3984C45.7734 37.5664 46.1289 37.4766 46.4648 37.2969C46.7148 37.1719 46.8828 36.9844 46.9688 36.7344C47.0625 36.4844 47.1094 35.9727 47.1094 35.1992V24.875C47.1094 23.8672 47.0078 23.2461 46.8047 23.0117C46.5234 22.6992 46.0547 22.543 45.3984 22.543H44.8359V22.1094H57.082L57.2578 25.5898H56.8008C56.6367 24.7539 56.4531 24.1797 56.25 23.8672C56.0547 23.5547 55.7617 23.3164 55.3711 23.1523C55.0586 23.0352 54.5078 22.9766 53.7188 22.9766H49.3594ZM54.3398 16.9414L50.8828 20.9844H50.4844L51.7148 16.9414H54.3398ZM75.2344 38H70.9922L65.6133 30.5703C65.2148 30.5859 64.8906 30.5938 64.6406 30.5938C64.5391 30.5938 64.4297 30.5938 64.3125 30.5938C64.1953 30.5859 64.0742 30.5781 63.9492 30.5703V35.1875C63.9492 36.1875 64.0586 36.8086 64.2773 37.0508C64.5742 37.3945 65.0195 37.5664 65.6133 37.5664H66.2344V38H59.4258V37.5664H60.0234C60.6953 37.5664 61.1758 37.3477 61.4648 36.9102C61.6289 36.668 61.7109 36.0938 61.7109 35.1875V24.9219C61.7109 23.9219 61.6016 23.3008 61.3828 23.0586C61.0781 22.7148 60.625 22.543 60.0234 22.543H59.4258V22.1094H65.2148C66.9023 22.1094 68.1445 22.2344 68.9414 22.4844C69.7461 22.7266 70.4258 23.1797 70.9805 23.8438C71.543 24.5 71.8242 25.2852 71.8242 26.1992C71.8242 27.1758 71.5039 28.0234 70.8633 28.7422C70.2305 29.4609 69.2461 29.9688 67.9102 30.2656L71.1914 34.8242C71.9414 35.8711 72.5859 36.5664 73.125 36.9102C73.6641 37.2539 74.3672 37.4727 75.2344 37.5664V38ZM63.9492 29.832C64.0977 29.832 64.2266 29.8359 64.3359 29.8438C64.4453 29.8438 64.5352 29.8438 64.6055 29.8438C66.1211 29.8438 67.2617 29.5156 68.0273 28.8594C68.8008 28.2031 69.1875 27.3672 69.1875 26.3516C69.1875 25.3594 68.875 24.5547 68.25 23.9375C67.6328 23.3125 66.8125 23 65.7891 23C65.3359 23 64.7227 23.0742 63.9492 23.2227V29.832ZM82.4297 37.5664V38H75.6211V37.5664H76.1836C76.8398 37.5664 77.3164 37.375 77.6133 36.9922C77.8008 36.7422 77.8945 36.1406 77.8945 35.1875V24.9219C77.8945 24.1172 77.8438 23.5859 77.7422 23.3281C77.6641 23.1328 77.5039 22.9648 77.2617 22.8242C76.918 22.6367 76.5586 22.543 76.1836 22.543H75.6211V22.1094H82.4297V22.543H81.8555C81.207 22.543 80.7344 22.7344 80.4375 23.1172C80.2422 23.3672 80.1445 23.9688 80.1445 24.9219V35.1875C80.1445 35.9922 80.1953 36.5234 80.2969 36.7812C80.375 36.9766 80.5391 37.1445 80.7891 37.2852C81.125 37.4727 81.4805 37.5664 81.8555 37.5664H82.4297ZM96.9023 22.1094L97.0781 25.8359H96.6328C96.5469 25.1797 96.4297 24.7109 96.2812 24.4297C96.0391 23.9766 95.7148 23.6445 95.3086 23.4336C94.9102 23.2148 94.3828 23.1055 93.7266 23.1055H91.4883V35.2461C91.4883 36.2227 91.5938 36.832 91.8047 37.0742C92.1016 37.4023 92.5586 37.5664 93.1758 37.5664H93.7266V38H86.9883V37.5664H87.5508C88.2227 37.5664 88.6992 37.3633 88.9805 36.957C89.1523 36.707 89.2383 36.1367 89.2383 35.2461V23.1055H87.3281C86.5859 23.1055 86.0586 23.1602 85.7461 23.2695C85.3398 23.418 84.9922 23.7031 84.7031 24.125C84.4141 24.5469 84.2422 25.1172 84.1875 25.8359H83.7422L83.9297 22.1094H96.9023ZM102.703 22.9766V29.2578H106.195C107.102 29.2578 107.707 29.1211 108.012 28.8477C108.418 28.4883 108.645 27.8555 108.691 26.9492H109.125V32.4805H108.691C108.582 31.707 108.473 31.2109 108.363 30.9922C108.223 30.7188 107.992 30.5039 107.672 30.3477C107.352 30.1914 106.859 30.1133 106.195 30.1133H102.703V35.3516C102.703 36.0547 102.734 36.4844 102.797 36.6406C102.859 36.7891 102.969 36.9102 103.125 37.0039C103.281 37.0898 103.578 37.1328 104.016 37.1328H106.711C107.609 37.1328 108.262 37.0703 108.668 36.9453C109.074 36.8203 109.465 36.5742 109.84 36.207C110.324 35.7227 110.82 34.9922 111.328 34.0156H111.797L110.426 38H98.1797V37.5664H98.7422C99.1172 37.5664 99.4727 37.4766 99.8086 37.2969C100.059 37.1719 100.227 36.9844 100.312 36.7344C100.406 36.4844 100.453 35.9727 100.453 35.1992V24.875C100.453 23.8672 100.352 23.2461 100.148 23.0117C99.8672 22.6992 99.3984 22.543 98.7422 22.543H98.1797V22.1094H110.426L110.602 25.5898H110.145C109.98 24.7539 109.797 24.1797 109.594 23.8672C109.398 23.5547 109.105 23.3164 108.715 23.1523C108.402 23.0352 107.852 22.9766 107.062 22.9766H102.703ZM107.684 16.9414L104.227 20.9844H103.828L105.059 16.9414H107.684Z" fill="black"/>
</svg>
