<svg width="27" height="27" viewBox="0 0 27 27" fill="none" xmlns="http://www.w3.org/2000/svg">
<path d="M13.125 2.66667C11.7713 2.66667 10.473 3.15833 9.51581 4.0335C8.55859 4.90867 8.02083 6.09566 8.02083 7.33333C8.02083 8.57101 8.55859 9.758 9.51581 10.6332C10.473 11.5083 11.7713 12 13.125 12C14.4787 12 15.777 11.5083 16.7342 10.6332C17.6914 9.758 18.2292 8.57101 18.2292 7.33333C18.2292 6.09566 17.6914 4.90867 16.7342 4.0335C15.777 3.15833 14.4787 2.66667 13.125 2.66667ZM5.10417 7.33333C5.10417 5.38841 5.94922 3.52315 7.45341 2.14788C8.95761 0.772617 10.9977 0 13.125 0C15.2523 0 17.2924 0.772617 18.7966 2.14788C20.3008 3.52315 21.1458 5.38841 21.1458 7.33333C21.1458 9.27825 20.3008 11.1435 18.7966 12.5188C17.2924 13.8941 15.2523 14.6667 13.125 14.6667C10.9977 14.6667 8.95761 13.8941 7.45341 12.5188C5.94922 11.1435 5.10417 9.27825 5.10417 7.33333ZM0 22.6667C0 20.8986 0.768227 19.2029 2.13568 17.9526C3.50313 16.7024 5.3578 16 7.29167 16H18.9583C20.8922 16 22.7469 16.7024 24.1143 17.9526C25.4818 19.2029 26.25 20.8986 26.25 22.6667V26.6667H0V22.6667ZM7.29167 18.6667C6.13134 18.6667 5.01855 19.0881 4.19807 19.8382C3.3776 20.5884 2.91667 21.6058 2.91667 22.6667V24H23.3333V22.6667C23.3333 21.6058 22.8724 20.5884 22.0519 19.8382C21.2315 19.0881 20.1187 18.6667 18.9583 18.6667H7.29167Z" fill="black"/>
</svg>
