<?xml version="1.0" encoding="utf-8"?>
<!-- Generator: Adobe Illustrator 25.4.1, SVG Export Plug-In . SVG Version: 6.00 Build 0)  -->
<svg version="1.0" id="Layer_1" xmlns="http://www.w3.org/2000/svg" xmlns:xlink="http://www.w3.org/1999/xlink" x="0px" y="0px"
	 viewBox="0 0 1419.1 1860.7" enable-background="new 0 0 1419.1 1860.7" xml:space="preserve">
<g>
	<path fill="#F16E02" d="M491.2,1860.6c-7.4-17.8-9-35.3-2.7-54.3c3.4-10.3,3.5-22.4-5.3-32.4c-6.5-7.3-12.4-14.3-23.5-12.4
		c-6.1,1.1-8.2-1.5-9.4-7.8c-4.8-25.6-10.5-51.1-15.9-76.6c-3-14.4-5.5-28.9-8.9-43.2c-4.7-20-10.1-39.9-15-59.9
		c-7.2-29.5-14.4-58.9-21.3-88.5c-4.8-20.6-9.3-41.3-13.9-61.9c-1.8-8.1-3.6-16.2-5.4-24.3c-3-14.2,5.2-24.7,12.2-35.4
		c5.4-8.4,11.6-16.4,16.3-25.2c5.4-9.8,1.7-18.2-5.3-26.3c-9.7-11.3-18.5-23.3-27.4-35.2c-1.2-1.6-1.5-4.1-1.9-6.2
		c-1.8-10.5-7.4-12.8-16.4-6.6c-10.1,6.9-12.7,5.4-15.3-6.6c-5.9-27.7-12.5-55.2-18.5-82.9c-3.9-17.9-5.6-36.5-11.5-53.8
		c-11.7-34.5-7-69.4-5-104.2c1.1-20.2,4.5-40.5,8.5-60.4c3.4-17-3.3-30.7-13.1-42.5c-4.7-5.7-14.3-8.7-22.2-10.1
		c-8.9-1.5-13.1-5.8-17-13.5c-16-30.8-18.5-65.3-27.4-98c-6.1-22.6-11.1-45.5-16.4-68.2c-4.3-18.7-8.4-37.4-12.5-56.2
		c-0.4-1.9-0.8-4.2,0-5.8c10.4-19.9,3.7-41.2,4.9-61.9c0.3-4.5-2.8-10.2-6.1-13.8c-15-16.1-27.4-33.9-31.8-55.4
		c-2.5-12-3.9-25.3,4.1-37.1c6.2-9.1,9.8-18.9,8.3-30.5c-1-7.7-0.3-15.7,0-23.6c0.5-12.8-1.9-24-11-34.2c-5.3-6-7.8-15-9.8-23.2
		c-2.2-9.4-5.3-16.1-17.5-14.7c-7.3,0.9-11.5-1.9-13.3-9.6c-6-26.9-12.6-53.6-18.9-80.5c-3.2-13.6-6.4-27.3-9.3-41
		c-1.3-6-0.7-12.8-3.2-18.1c-6.4-13.8-4.4-31.1-18.6-41.8c-6.2-4.7-10-12.5-15.7-18c-3.9-3.6-9.2-5.8-14-8.2
		c-23.4-11.7-34.5-31.5-40.5-56.3C1.4,81.5-1.9,69.2,1.3,55.5C6.9,32.1,22.7,18.5,42.7,7.5c10.5-5.8,21-5.6,32-5.6
		C260.9,2,447.1,2,633.3,2c20.2,0,34.9,7.9,44.5,26.8c13,25.6,12,51.8,5.5,78c-4.1,16.7-17,27.7-31.7,36.1c-2.1,1.2-5,0.9-7.6,1.2
		c-12.1,1.3-25.1,0.4-36.1,4.6c-9.9,3.8-19.2,12.1-25.9,20.6c-13.9,17.6-15.3,39.3-14.3,60.7c0.7,15.6,2.3,31.4,5.9,46.5
		c3.6,15.3,7.8,30,4.7,46c-0.8,3.9,1.9,8.6,3,12.9c-0.9,0.7-1.7,1.4-2.6,2.1c-3.7-3.6-7-7.5-11-10.7c-3.3-2.6-7.2-5.4-11-5.8
		c-1.6-0.2-4.8,5.5-5.6,8.9c-4,17.9-3.6,35.6,2.5,53.1c0.9,2.7,1.3,6.7,0,8.9c-11.9,19.1-7.5,33,13.7,40.4c5.7,2,11.9,2.5,17.7,4.5
		c2.2,0.8,4.6,3.4,5.4,5.7c1,3,0.9,6.5,0.4,9.7c-1.9,12.7,2.7,21.6,12.1,30.7c5.4,5.2,6.5,15.7,7.9,24.1c8.3,47.6,16,95.4,24.2,143
		c2.8,16.3,3.6,33.8,10.1,48.6c10.9,24.8,9.2,50.9,13.2,76.5c0.7,4.2,3.4,8.1,4.7,12.3c1.3,4.3,2.5,8.7,3,13.1
		c3.7,28.5,6.2,57.2,11,85.5c4.8,28.2,11.8,55.9,18,83.9c2.1,9.4,5.6,18.6,6.7,28.1c0.9,7.2,0.8,15.4-1.8,21.9
		c-8.5,21.3-18.2,42.1-27.7,63c-8.4,18.6-0.4,32.5,20.1,34.6c9.6,1,19.8,1.1,28.6,4.6c4.6,1.8,8.6,9.6,9.6,15.2
		c4.1,22.8,6,46,10.6,68.7c5.9,29,13.7,57.5,20.3,86.4c3.2,14,4.9,28.3,8.7,42.1c7.4,27,11.1,54.6,14.5,82.3
		c0.8,6.8,1.7,13.8,1,20.5c-1.9,20.4,5.5,38.7,12.8,56.7c7.6,18.5,13.2,37.2,10.5,57.1c-1.4,10.7-5.1,21.6-10,31.2
		c-7.1,14.1-9.5,27.8-3.5,42.4c3.3,8,2.4,13.4-5.7,18.6c-12.4,7.9-23.6,16.7-31.1,30.8c-7.2,13.3-7,23.4,2,34.5
		c7.3,9.1,10.3,19.4,9.7,31c-0.3,6.2-0.7,12.5,0.1,18.7c3.2,25.8-6.1,49.4-12.5,73.6c-0.5,1.8-1.7,4-3.2,4.7
		c-13.8,6.7-27.2,15.3-41.9,19.1c-13,3.3-27.3,1.3-41.1,1.4c-38.6,0.3-77.2,0.2-115.9,0.7c-9.7,0.1-19.3,1.7-29,2.6
		C514.8,1860.6,503,1860.6,491.2,1860.6z M314.6,125.7c0.5-13.6-6.9-22.9-14.6-31.6c-9.3-10.6-19.3-20.7-29-30.9
		c-2.1-2.2-5.6-6.2-6.7-5.6c-3.5,1.7-6.7,4.7-9,8c-2.2,3.1-2.8,7.2-4.7,10.5c-7.8,13.5-9.2,27.8-6.2,42.9
		c4,19.8,20.7,29.2,33.7,41.5c2.3,2.2,7.5,3.3,10.6,2.4C301.7,158.7,314.6,139.2,314.6,125.7z M525.8,1229.1c0,3.2-0.2,5.2,0,7.1
		c2,17.3,6.9,33.2,22.3,43.6c2.6,1.7,6.4,2.2,9.6,2.1c5.7-0.1,11.5-1.8,17.1-1.2c6.7,0.7,11.3-2.5,11-9.5c-0.1-2.3-1-4.7-0.4-6.7
		c4.7-15.6-3.1-28-14-35.8c-9.6-6.8-6.1-11.4-3.4-18.8c5-13.7,7.9-28.1-1.6-40.9c-3.2-4.3-9.9-5.9-14.9-8.8c-1.9,4.4-5,8.6-5.5,13.2
		c-1,9.7-2.2,18.5-8.9,26.8C530.3,1208.6,523.3,1218,525.8,1229.1z"/>
	<path fill="#F16E02" d="M911.4,1305.9c-3.5-15-7.3-30-10.4-45.1c-6.9-33.3-13.7-66.5-19.9-99.9c-3.2-17-5-34.2-7.7-51.2
		c-1.1-6.9-2.3-13.8-3.9-20.6c-4.2-17.4-8.4-34.8-13.1-52.1c-3.7-13.8-0.6-26.5,4.9-39c6.8-15.4,13.5-30.9,20.7-46.2
		c2.8-6,7.9-11,10.4-17.2c2.4-6.1,3.4-13,4-19.7c1.1-13.5,0.8-27.2,2.5-40.7c0.4-3.3,6-7.9,9.7-8.3c10.2-1.3,14.7-6.1,14.2-16
		c-0.2-4.2,1.1-9.5-0.9-12.6c-10.6-16.5-2.8-32.5,0.7-48.4c4.3-19.4,9-38.7,14.4-57.9c5.2-18.5,12.1-36.5,17.2-55
		c5.2-19.2,8.9-38.8,13.7-58.1c5.3-21.5,11.5-42.8,16.7-64.2c5.3-21.8,9.9-43.7,15.1-65.5c2-8.5,3.8-17.2,7.2-25.2
		c12.9-29.3,15.7-61.3,24.5-91.6c8.7-29.8,5.3-59.8,4.9-89.7c-0.4-23.3-11.3-43.9-26-61.7c-10.6-12.8-21.1-26.3-34.1-36.4
		c-22.1-17.2-46.2-31.7-74.9-36.1c-10.5-1.6-16.8-9.9-20.9-18.9c-9.9-22-13.5-45-8.2-68.8c2.1-9.4,3.7-19.2,7.6-27.9
		c8-17.6,23.9-26,41.9-27.9c23.9-2.5,48-2.5,72.1-3.6c1.9-0.1,3.9,0.3,5.9,0.4c9.1,0.3,20.5-2.5,26.7,1.9c5.3,3.8,4.7,16,6.8,24.4
		c2.4,9,16.1,20.2,23.5,19.4c7.8-0.9,19.7-13.6,20.9-22.4c0.8-5.5,1.7-11,2-16.6c0.3-6.1,3.6-7.7,9.1-7.5
		c14.3,0.4,28.6,0.8,42.9,0.9c57.6,0.1,115.2-0.4,172.9,0.2c21.2,0.2,42.3,2,63.4,4.3c4.7,0.5,10.4,5.6,12.9,10
		c4.6,8.1,7.8,17.2,10.4,26.2c3,10.4,5.8,20.3,18.9,21.4c0.9,0.1,2.4,0.8,2.4,1.3c0.7,10.1,10.5,18.5,4.7,29.9
		c-6.3,12.2-9.6,26.6-18.1,37c-11.4,14-25.3,26.2-46.6,25.1c-11.3-0.6-15.7-9.2-23.4-13.8c-2.4-1.4-4.3-4.1-5.9-6.5
		c-4.5-7.3-10.7-15-19.2-11c-5.8,2.7-10.4,11.1-12.6,17.9c-3.8,11.6-5.6,23.9-7.9,36c-2.8,14.8-15.4,20.7-25.7,28.4
		c-7,5.3-15.2,9.1-23,13.3c-16.6,9.1-20.4,26.2-26.1,42c-2.3,6.3-3.5,13.5-3.3,20.2c0.6,16.7-8.3,30.1-15,43.9
		c-14.8,30.5-27.9,61.3-35.7,94.5c-5,21.5-12.6,42.4-18.5,63.7c-4.6,16.6-8.3,33.4-12.8,50c-4.6,17-10.4,33.7-14.3,50.8
		c-3.5,15.2-9.5,28-22.8,37.4c-3.5,2.5-5.6,8.9-5.8,13.6c-1.1,22.2-1.2,44.4-1.9,66.5c-0.1,3.7-0.6,8.7-2.9,10.9
		c-9.5,8.5-10.1,19.2-9,30.5c0.6,5.4-0.7,8.5-6.2,11.3c-4.1,2.1-8.7,7.7-9,12c-2.4,38-8.1,75.3-20.6,111.4
		c-2.3,6.7-6.1,12.9-8.2,19.6c-2.2,6.8-4.5,13.8-4.6,20.8c-0.7,25.6-4.9,50.5-12.6,75c-8.4,27-15.1,54.6-23.2,81.7
		c-10.3,34.6-21.4,69-31.6,103.7c-5.9,19.9-10.3,40.2-16,60.2c-6.2,22-13.2,43.8-19.8,65.6C913.9,1305.8,912.6,1305.9,911.4,1305.9z
		"/>
</g>
</svg>
