<svg width="86" height="26" viewBox="0 0 86 26" fill="none" xmlns="http://www.w3.org/2000/svg">
<path d="M80.2133 8.75309C81.7815 8.75309 83.0256 9.13992 83.9457 9.91359C84.8657 10.6663 85.3257 11.7327 85.3257 13.1128C85.3257 14.0328 85.1271 14.8483 84.7298 15.5592C84.3325 16.2493 83.8411 16.7929 83.2556 17.1902C82.6702 17.5875 81.9592 17.9116 81.1228 18.1625C79.7219 18.5807 78.1432 18.7898 76.3868 18.7898C76.4495 19.898 76.7945 20.7971 77.4218 21.4872C78.0491 22.1563 79.011 22.4908 80.3074 22.4908C81.6038 22.4908 82.9002 22.0308 84.1966 21.1108L85.3885 23.6513C84.9703 24.0277 84.2593 24.4145 83.2556 24.8118C82.2729 25.2091 81.1438 25.4078 79.8683 25.4078C77.3173 25.4078 75.4458 24.7073 74.254 23.3063C73.0621 21.8844 72.4662 19.9398 72.4662 17.4725C72.4662 15.0051 73.1458 12.9351 74.5049 11.2623C75.864 9.58949 77.7668 8.75309 80.2133 8.75309ZM78.7705 15.9356C79.5442 15.7892 80.2551 15.486 80.9033 15.026C81.5515 14.5451 81.8756 13.9805 81.8756 13.3323C81.8756 12.0568 81.2483 11.4191 79.9937 11.4191C78.8228 11.4191 77.9237 11.8896 77.2964 12.8305C76.6691 13.7505 76.3241 14.8588 76.2613 16.1552C77.1814 16.1343 78.0177 16.0611 78.7705 15.9356ZM76.7318 6.36937L80.3701 0.347351L81.8442 1.03737C82.4506 1.37193 82.7538 1.74831 82.7538 2.1665C82.7538 2.5847 82.4924 3.03426 81.9697 3.51519L77.955 7.40441L76.7318 6.36937Z" fill="black"/>
<path d="M63.9991 5.89893H66.0378V9.22359H70.2094L69.8957 11.8582H66.0378V20.1071C66.0378 21.0272 66.2051 21.6754 66.5397 22.0518C66.8742 22.4072 67.3865 22.5849 68.0766 22.5849C68.7875 22.5849 69.4984 22.3654 70.2094 21.9263L71.1503 24.3414C70.1048 25.0732 68.777 25.4391 67.167 25.4391C66.226 25.4391 65.4315 25.3137 64.7833 25.0628C64.1351 24.8328 63.6541 24.5714 63.3405 24.2786C63.0268 23.9859 62.7864 23.5573 62.6191 22.9927C62.4518 22.4281 62.3577 21.989 62.3368 21.6754C62.3159 21.3408 62.3054 20.8599 62.3054 20.2326V11.8582H60.0786L60.3922 9.5686C61.375 9.48496 62.1173 9.13994 62.6191 8.53356C63.1209 7.90627 63.5809 7.02806 63.9991 5.89893Z" fill="black"/>
<path d="M56.914 9.22358V22.3968L58.7017 22.4909V25H51.2369V22.6163L52.272 22.5222C52.8784 22.4595 53.1816 22.1249 53.1816 21.5185V12.7992C53.1816 12.4437 53.1188 12.2032 52.9934 12.0778C52.8888 11.9523 52.6902 11.8896 52.3974 11.8896L51.2997 11.8269V9.22358H56.914ZM52.962 6.52622C52.5229 6.08711 52.3033 5.533 52.3033 4.86389C52.3033 4.19477 52.5229 3.64066 52.962 3.20156C53.4011 2.74154 53.9761 2.51154 54.6871 2.51154C55.398 2.51154 55.973 2.74154 56.4121 3.20156C56.8721 3.64066 57.1021 4.19477 57.1021 4.86389C57.1021 5.533 56.8721 6.08711 56.4121 6.52622C55.973 6.94441 55.398 7.15351 54.6871 7.15351C53.9761 7.15351 53.4011 6.94441 52.962 6.52622Z" fill="black"/>
<path d="M38.6937 21.4872V12.7992C38.6937 12.4646 38.631 12.2346 38.5055 12.1091C38.401 11.9628 38.2023 11.8791 37.9096 11.8582L36.5923 11.7641V9.22358H41.8929V11.5759C42.2693 10.7605 42.8548 10.0913 43.6493 9.56859C44.4439 9.02494 45.3535 8.75311 46.3781 8.75311C47.4236 8.75311 48.4168 8.98312 49.3577 9.44314V14.1165L46.4408 14.336V12.8933C46.4408 12.4751 46.3363 12.2137 46.1272 12.1091C45.8971 12.0046 45.6149 11.9523 45.2803 11.9523C44.4439 11.9523 43.7539 12.2555 43.2102 12.8619C42.6875 13.4474 42.4261 14.2001 42.4261 15.1201V22.3968L45.1549 22.5222V25H36.7491V22.6163L37.7841 22.5222C38.0978 22.4804 38.3278 22.3968 38.4742 22.2713C38.6205 22.1249 38.6937 21.8636 38.6937 21.4872Z" fill="black"/>
<path d="M29.4294 8.75309C30.9976 8.75309 32.2418 9.13992 33.1618 9.91359C34.0818 10.6663 34.5418 11.7327 34.5418 13.1128C34.5418 14.0328 34.3432 14.8483 33.9459 15.5592C33.5486 16.2493 33.0572 16.7929 32.4718 17.1902C31.8863 17.5875 31.1754 17.9116 30.339 18.1625C28.938 18.5807 27.3593 18.7898 25.6029 18.7898C25.6656 19.898 26.0106 20.7971 26.6379 21.4872C27.2652 22.1563 28.2271 22.4908 29.5235 22.4908C30.8199 22.4908 32.1163 22.0308 33.4127 21.1108L34.6046 23.6513C34.1864 24.0277 33.4754 24.4145 32.4718 24.8118C31.489 25.2091 30.3599 25.4078 29.0844 25.4078C26.5334 25.4078 24.662 24.7073 23.4701 23.3063C22.2782 21.8844 21.6823 19.9398 21.6823 17.4725C21.6823 15.0051 22.3619 12.9351 23.721 11.2623C25.0802 9.58949 26.9829 8.75309 29.4294 8.75309ZM27.9866 15.9356C28.7603 15.7892 29.4712 15.486 30.1194 15.026C30.7676 14.5451 31.0917 13.9805 31.0917 13.3323C31.0917 12.0568 30.4644 11.4191 29.2098 11.4191C28.0389 11.4191 27.1398 11.8896 26.5125 12.8305C25.8852 13.7505 25.5402 14.8588 25.4774 16.1552C26.3975 16.1343 27.2339 16.0611 27.9866 15.9356ZM25.9479 6.36937L29.5862 0.347351L31.0604 1.03737C31.6667 1.37193 31.9699 1.74831 31.9699 2.1665C31.9699 2.5847 31.7086 3.03426 31.1858 3.51519L27.1711 7.40441L25.9479 6.36937Z" fill="black"/>
<path d="M6.30428 7.87486L10.5072 20.5148L11.5 25L15.055 6.93392L13.1418 6.80846V4.14246H20.3557V6.683L19.3206 6.77709C19.0488 6.798 18.8502 6.88164 18.7247 7.02801C18.5992 7.15347 18.4738 7.38348 18.3483 7.71803L12.4204 25H8.34299L4.5 14L1.94459 6.90255L0.156799 6.80846V4.14246H8.24889V6.683L7.21386 6.77709C6.56565 6.81891 6.24155 7.06983 6.24155 7.52984C6.24155 7.63439 6.26246 7.7494 6.30428 7.87486Z" fill="black"/>
</svg>
